<svg width="40" height="40" viewBox="0 0 40 40" fill="none" xmlns="http://www.w3.org/2000/svg">
<path d="M14.85 34.45C14.5333 34.45 14.2166 34.3333 13.9666 34.0833C13.4833 33.6 13.4833 32.8 13.9666 32.3167L24.8333 21.45C25.6333 20.65 25.6333 19.35 24.8333 18.55L13.9666 7.68334C13.4833 7.2 13.4833 6.4 13.9666 5.91667C14.45 5.43334 15.25 5.43334 15.7333 5.91667L26.6 16.7833C27.45 17.6333 27.9333 18.7833 27.9333 20C27.9333 21.2167 27.4666 22.3667 26.6 23.2167L15.7333 34.0833C15.4833 34.3167 15.1666 34.45 14.85 34.45Z" fill="#292D32"/>
</svg>
