<svg width="40" height="40" viewBox="0 0 40 40" fill="none" xmlns="http://www.w3.org/2000/svg">
<path d="M24.8334 37.9167H15.1667C13.6834 37.9167 11.7834 37.1333 10.75 36.0833L3.91672 29.25C2.86672 28.2 2.08337 26.3 2.08337 24.8333V15.1667C2.08337 13.6834 2.86672 11.7834 3.91672 10.75L10.75 3.91669C11.8 2.86669 13.7001 2.08334 15.1667 2.08334H24.8334C26.3167 2.08334 28.2167 2.86669 29.25 3.91669L36.0834 10.75C37.1334 11.8 37.9167 13.7 37.9167 15.1667V24.8333C37.9167 26.3167 37.1334 28.2167 36.0834 29.25L29.25 36.0833C28.2 37.1333 26.3167 37.9167 24.8334 37.9167ZM15.1667 4.58334C14.3501 4.58334 13.0834 5.10002 12.5167 5.68335L5.68338 12.5167C5.11671 13.1 4.58337 14.35 4.58337 15.1667V24.8333C4.58337 25.65 5.10005 26.9167 5.68338 27.4833L12.5167 34.3167C13.1 34.8833 14.3501 35.4167 15.1667 35.4167H24.8334C25.65 35.4167 26.9167 34.9 27.4834 34.3167L34.3167 27.4833C34.8834 26.9 35.4167 25.65 35.4167 24.8333V15.1667C35.4167 14.35 34.9 13.0834 34.3167 12.5167L27.4834 5.68335C26.9 5.11668 25.65 4.58334 24.8334 4.58334H15.1667Z" fill="#292D32"/>
<path d="M8.23314 33.05C7.91647 33.05 7.5998 32.9333 7.3498 32.6833C6.86647 32.2 6.86647 31.4 7.3498 30.9167L30.9165 7.35002C31.3998 6.86668 32.1998 6.86668 32.6831 7.35002C33.1665 7.83335 33.1665 8.63335 32.6831 9.11668L9.11647 32.6833C8.86647 32.9333 8.5498 33.05 8.23314 33.05Z" fill="#292D32"/>
</svg>
