<svg width="40" height="40" viewBox="0 0 40 40" fill="none" xmlns="http://www.w3.org/2000/svg">
<rect width="40" height="40" fill="white"/>
<path d="M11.6666 22.3333C11.6666 20.4477 11.6666 19.5049 12.2524 18.9191C12.8382 18.3333 13.781 18.3333 15.6666 18.3333H24.3333C26.2189 18.3333 27.1617 18.3333 27.7475 18.9191C28.3333 19.5049 28.3333 20.4477 28.3333 22.3333V27C28.3333 30.7712 28.3333 32.6569 27.1617 33.8284C25.9901 35 24.1045 35 20.3333 35H19.6666C15.8954 35 14.0098 35 12.8382 33.8284C11.6666 32.6569 11.6666 30.7712 11.6666 27V22.3333Z" fill="#292D32" stroke="#292D32" stroke-width="1.2"/>
<path d="M15 14C15 12.1144 15 11.1716 15.5858 10.5858C16.1716 10 17.1144 10 19 10H21C22.8856 10 23.8284 10 24.4142 10.5858C25 11.1716 25 12.1144 25 14V18.3333H15V14Z" fill="#292D32" stroke="#292D32" stroke-width="1.2"/>
<path d="M20 18.3333V25" stroke="#292D32" stroke-width="1.2"/>
<path d="M25 5L21.6667 10" stroke="#292D32" stroke-width="1.2"/>
<path d="M15 5L18.3333 10" stroke="#292D32" stroke-width="1.2"/>
<path d="M11.6666 26.6667H3.33329" stroke="#292D32" stroke-width="1.2"/>
<path d="M36.6666 26.6667H28.3333" stroke="#292D32" stroke-width="1.2"/>
<path d="M33.3334 15V16.6667C33.3334 18.5359 33.3334 19.4705 32.9315 20.1667C32.6681 20.6227 32.2894 21.0014 31.8334 21.2647C31.1372 21.6667 30.2026 21.6667 28.3334 21.6667" stroke="#292D32" stroke-width="1.2"/>
<path d="M33.3334 36.6667C33.3334 34.7974 33.3334 33.8628 32.9315 33.1667C32.6681 32.7106 32.2894 32.3319 31.8334 32.0686C31.1372 31.6667 30.2026 31.6667 28.3334 31.6667" stroke="#292D32" stroke-width="1.2"/>
<path d="M6.66663 15V16.6667C6.66663 18.5359 6.66663 19.4705 7.06855 20.1667C7.33185 20.6227 7.71057 21.0014 8.16663 21.2647C8.86278 21.6667 9.79739 21.6667 11.6666 21.6667" stroke="#292D32" stroke-width="1.2"/>
<path d="M6.66663 36.6667C6.66663 34.7974 6.66663 33.8628 7.06855 33.1667C7.33185 32.7106 7.71057 32.3319 8.16663 32.0686C8.86278 31.6667 9.79739 31.6667 11.6666 31.6667" stroke="#292D32" stroke-width="1.2"/>
</svg>
