<svg width="40" height="40" viewBox="0 0 40 40" fill="none" xmlns="http://www.w3.org/2000/svg">
<path d="M25.9667 20C25.9667 23.3 23.3 25.9667 20 25.9667C16.7 25.9667 14.0333 23.3 14.0333 20C14.0333 16.7 16.7 14.0333 20 14.0333C23.3 14.0333 25.9667 16.7 25.9667 20Z" stroke="#292D32" stroke-width="1.5" stroke-linecap="round" stroke-linejoin="round"/>
<path d="M20 33.7833C25.8833 33.7833 31.3667 30.3167 35.1833 24.3167C36.6833 21.9667 36.6833 18.0167 35.1833 15.6667C31.3667 9.66666 25.8833 6.2 20 6.2C14.1166 6.2 8.63332 9.66666 4.81665 15.6667C3.31665 18.0167 3.31665 21.9667 4.81665 24.3167C8.63332 30.3167 14.1166 33.7833 20 33.7833Z" stroke="#292D32" stroke-width="1.5" stroke-linecap="round" stroke-linejoin="round"/>
</svg>
