<svg width="40" height="40" viewBox="0 0 40 40" fill="none" xmlns="http://www.w3.org/2000/svg">
<path d="M18.2163 37.9167C17.4163 37.9167 16.6164 37.7167 15.883 37.3167C14.3997 36.4834 13.5163 35 13.5163 33.3167V24.4001C13.5163 23.5501 12.9663 22.3 12.4496 21.65L6.11629 15.0001C5.06629 13.9501 4.24963 12.1167 4.24963 10.7667V6.90007C4.24963 4.21674 6.283 2.1167 8.86633 2.1167H31.0996C33.6496 2.1167 35.7163 4.1834 35.7163 6.7334V10.4334C35.7163 12.1834 34.6663 14.2 33.6663 15.1834C33.183 15.6667 32.383 15.6667 31.8997 15.1834C31.4163 14.7 31.4163 13.9 31.8997 13.4167C32.5163 12.8 33.2163 11.4167 33.2163 10.4334V6.7334C33.2163 5.56673 32.2663 4.6167 31.0996 4.6167H8.86633C7.683 4.6167 6.74963 5.61674 6.74963 6.90007V10.7667C6.74963 11.3834 7.24964 12.6001 7.89964 13.2501L14.3164 20C15.1664 21.0501 15.9996 22.8167 15.9996 24.4001V33.3167C15.9996 34.4167 16.7497 34.95 17.083 35.1334C17.7997 35.5334 18.6497 35.5167 19.3164 35.1167L21.6496 33.6167C22.133 33.3334 22.5996 32.4167 22.5996 31.8C22.5996 31.1167 23.1663 30.55 23.8496 30.55C24.533 30.55 25.0996 31.1167 25.0996 31.8C25.0996 33.3 24.1663 35.0167 22.983 35.7334L20.6664 37.2334C19.9164 37.6834 19.0663 37.9167 18.2163 37.9167Z" fill="#292D32"/>
<path d="M26.7835 28.7833C23.1502 28.7833 20.2002 25.8333 20.2002 22.2C20.2002 18.5667 23.1502 15.6167 26.7835 15.6167C30.4169 15.6167 33.3669 18.5667 33.3669 22.2C33.3669 25.8333 30.4169 28.7833 26.7835 28.7833ZM26.7835 18.1167C24.5335 18.1167 22.7002 19.95 22.7002 22.2C22.7002 24.45 24.5335 26.2833 26.7835 26.2833C29.0335 26.2833 30.8669 24.45 30.8669 22.2C30.8669 19.95 29.0335 18.1167 26.7835 18.1167Z" fill="#292D32"/>
<path d="M33.1167 29.7833C32.8 29.7833 32.4834 29.6667 32.2334 29.4167L30.5667 27.75C30.0834 27.2667 30.0834 26.4667 30.5667 25.9833C31.0501 25.5 31.8501 25.5 32.3334 25.9833L34.0001 27.65C34.4834 28.1333 34.4834 28.9333 34.0001 29.4167C33.7667 29.65 33.4333 29.7833 33.1167 29.7833Z" fill="#292D32"/>
</svg>
