<svg width="40" height="40" viewBox="0 0 40 40" fill="none" xmlns="http://www.w3.org/2000/svg">
<g clip-path="url(#clip0_635_8)">
<path fill-rule="evenodd" clip-rule="evenodd" d="M28.0722 10.9131C26.0072 8.94357 23.2514 7.87063 20.4 7.91473C15.1823 7.91473 10.751 11.4348 9.17092 16.1748C8.33315 18.6587 8.33315 21.3485 9.17092 23.8324H9.17825C10.7656 28.5651 15.1896 32.0853 20.4074 32.0853C23.1007 32.0853 25.413 31.3963 27.2051 30.1795V30.1746C29.3142 28.7783 30.7546 26.581 31.2029 24.097H20.4V16.3954H39.2647C39.4998 17.7329 39.6101 19.0998 39.6101 20.4593C39.6101 26.5424 37.4361 31.6854 33.6535 35.1687L33.6574 35.1718C30.3431 38.2289 25.7941 40 20.4 40C12.838 40 5.92269 35.7376 2.52751 28.984C-0.309143 23.3327 -0.309136 16.6746 2.52753 11.0234C5.92271 4.26238 12.838 -2.55144e-05 20.4 -2.55144e-05C25.3679 -0.0588166 30.1667 1.8078 33.7823 5.20299L28.0722 10.9131Z" fill="#292D32"/>
</g>
<defs>
<clipPath id="clip0_635_8">
<rect width="40" height="40" fill="white"/>
</clipPath>
</defs>
</svg>
