<svg width="40" height="40" viewBox="0 0 40 40" fill="none" xmlns="http://www.w3.org/2000/svg">
<path d="M30.7861 22.2189C30.9985 22.7884 31.5415 23.1656 32.149 23.1656H38.5453C39.348 23.1656 39.9999 22.5144 39.9999 21.711C39.9999 20.9088 39.348 20.2565 38.5453 20.2565H33.1588L30.2611 12.4788C30.054 11.9217 29.5268 11.5471 28.9331 11.5325C28.3351 11.5201 27.7953 11.8678 27.561 12.4132L24.9452 18.5151L21.5608 5.90146C21.3862 5.24584 20.7742 4.79569 20.1039 4.82487C19.4268 4.84896 18.8559 5.33755 18.7279 6.003L14.6792 27.0278L11.8093 15.6796C11.6529 15.0628 11.1151 14.6191 10.48 14.5833C9.84087 14.556 9.26019 14.9306 9.03692 15.5254L6.95193 21.0855H1.45438C0.650808 21.0855 0 21.7366 0 22.5401C0 23.3427 0.650808 23.9946 1.45438 23.9946H7.95913C8.56556 23.9946 9.10816 23.6182 9.32133 23.0498L10.1279 20.8987L13.4595 34.0775C13.6237 34.7254 14.2059 35.1764 14.8689 35.1764C14.8834 35.1764 14.8973 35.1764 14.9118 35.1757C15.5933 35.1556 16.1692 34.6655 16.2983 33.9965L20.3884 12.7594L23.2243 23.3225C23.3847 23.9214 23.906 24.3524 24.5256 24.397C25.1334 24.4371 25.7214 24.0889 25.965 23.5193L28.8025 16.8981L30.7861 22.2189Z" fill="#292D32" stroke="#292D32" stroke-width="0.00064"/>
</svg>
