<svg width="40" height="40" viewBox="0 0 40 40" fill="none" xmlns="http://www.w3.org/2000/svg">
<path d="M31.3334 16.5167C29.45 16.5167 27.7667 17.4333 26.7167 18.8333C25.6667 17.4333 23.9834 16.5167 22.1 16.5167C18.9167 16.5167 16.3334 19.1167 16.3334 22.3167C16.3334 23.55 16.5334 24.7 16.8667 25.75C18.5 30.9333 23.5667 34.05 26.0667 34.9C26.4167 35.0167 27 35.0167 27.35 34.9C29.85 34.05 34.9167 30.95 36.55 25.75C36.9 24.6833 37.0834 23.55 37.0834 22.3167C37.1 19.1167 34.5167 16.5167 31.3334 16.5167Z" fill="#292D32"/>
<path d="M34.5834 13.9C34.5834 14.2833 34.2 14.5333 33.8334 14.4333C31.5834 13.85 29.1167 14.3333 27.25 15.6667C26.8834 15.9333 26.3834 15.9333 26.0334 15.6667C24.7167 14.7 23.1167 14.1667 21.4334 14.1667C17.1334 14.1667 13.6334 17.6833 13.6334 22.0167C13.6334 26.7167 15.8834 30.2333 18.15 32.5833C18.2667 32.7 18.1667 32.9 18.0167 32.8333C13.4667 31.2833 3.33337 24.85 3.33337 13.9C3.33337 9.06667 7.21671 5.16667 12.0167 5.16667C14.8667 5.16667 17.3834 6.53333 18.9667 8.65C20.5667 6.53333 23.0834 5.16667 25.9167 5.16667C30.7 5.16667 34.5834 9.06667 34.5834 13.9Z" fill="#292D32"/>
</svg>
