<svg width="40" height="40" viewBox="0 0 40 40" fill="none" xmlns="http://www.w3.org/2000/svg">
<path d="M32.9833 24.8833C29.55 28.3 24.6333 29.35 20.3166 28L12.4666 35.8333C11.9 36.4167 10.7833 36.7667 9.98329 36.65L6.34996 36.15C5.14996 35.9833 4.03329 34.85 3.84996 33.65L3.34996 30.0167C3.23329 29.2167 3.61663 28.1 4.16663 27.5333L12 19.7C10.6666 15.3667 11.7 10.45 15.1333 7.03333C20.05 2.11666 28.0333 2.11666 32.9666 7.03333C37.9 11.95 37.9 19.9667 32.9833 24.8833Z" stroke="#292D32" stroke-width="1.5" stroke-miterlimit="10" stroke-linecap="round" stroke-linejoin="round"/>
<path d="M11.4833 29.15L15.3166 32.9833" stroke="#292D32" stroke-width="1.5" stroke-miterlimit="10" stroke-linecap="round" stroke-linejoin="round"/>
<path d="M24.1666 18.3333C25.5473 18.3333 26.6666 17.2141 26.6666 15.8333C26.6666 14.4526 25.5473 13.3333 24.1666 13.3333C22.7859 13.3333 21.6666 14.4526 21.6666 15.8333C21.6666 17.2141 22.7859 18.3333 24.1666 18.3333Z" stroke="#292D32" stroke-width="1.5" stroke-linecap="round" stroke-linejoin="round"/>
</svg>
