<svg width="40" height="40" viewBox="0 0 40 40" fill="none" xmlns="http://www.w3.org/2000/svg">
<path d="M32.5001 12.5L30.0167 14.9833L25.0167 9.98333L27.5001 7.49999C28.2001 6.79999 29.1001 6.46666 30.0001 6.46666C30.9001 6.46666 31.8001 6.79999 32.5001 7.49999C33.8834 8.88333 33.8834 11.1167 32.5001 12.5Z" fill="#292D32"/>
<path d="M28.8499 16.1667L10.8333 34.1667C9.44994 35.55 7.21661 35.55 5.83328 34.1667C4.44994 32.7833 4.44994 30.55 5.83328 29.1667L23.8499 11.1667L28.8499 16.1667Z" fill="#292D32"/>
<path d="M16.5833 5.83333L17.2666 3.51666C17.3333 3.3 17.2666 3.06666 17.1166 2.9C16.9666 2.73333 16.6999 2.66666 16.4833 2.73333L14.1666 3.41666L11.8499 2.73333C11.6333 2.66666 11.3999 2.73333 11.2333 2.88333C11.0666 3.05 11.0166 3.28333 11.0833 3.5L11.7499 5.83333L11.0666 8.15C10.9999 8.36666 11.0666 8.6 11.2166 8.76666C11.3833 8.93333 11.6166 8.98333 11.8333 8.91666L14.1666 8.25L16.4833 8.93333C16.5499 8.95 16.5999 8.96666 16.6666 8.96666C16.8333 8.96666 16.9833 8.9 17.1166 8.78333C17.2833 8.61666 17.3333 8.38333 17.2666 8.16666L16.5833 5.83333Z" fill="#292D32"/>
<path d="M9.91665 15.8333L10.6 13.5167C10.6667 13.3 10.6 13.0667 10.45 12.9C10.2833 12.7333 10.05 12.6833 9.83332 12.75L7.49999 13.4167L5.18332 12.7333C4.96665 12.6667 4.73332 12.7333 4.56665 12.8833C4.39999 13.05 4.34999 13.2833 4.41665 13.5L5.08332 15.8333L4.39999 18.15C4.33332 18.3667 4.39999 18.6 4.54999 18.7667C4.71665 18.9333 4.94999 18.9833 5.16665 18.9167L7.48332 18.2333L9.79999 18.9167C9.84999 18.9333 9.91665 18.9333 9.98332 18.9333C10.15 18.9333 10.3 18.8667 10.4333 18.75C10.6 18.5833 10.65 18.35 10.5833 18.1333L9.91665 15.8333Z" fill="#292D32"/>
<path d="M34.9167 24.1667L35.6 21.85C35.6667 21.6333 35.6 21.4 35.45 21.2333C35.2834 21.0667 35.05 21.0167 34.8334 21.0833L32.5167 21.7667L30.2 21.0833C29.9834 21.0167 29.75 21.0833 29.5834 21.2333C29.4167 21.4 29.3667 21.6333 29.4334 21.85L30.1167 24.1667L29.4334 26.4833C29.3667 26.7 29.4334 26.9333 29.5834 27.1C29.75 27.2667 29.9834 27.3167 30.2 27.25L32.5167 26.5667L34.8334 27.25C34.8834 27.2667 34.95 27.2667 35.0167 27.2667C35.1834 27.2667 35.3334 27.2 35.4667 27.0833C35.6334 26.9167 35.6834 26.6833 35.6167 26.4667L34.9167 24.1667Z" fill="#292D32"/>
</svg>
