<svg width="34" height="42" viewBox="0 0 34 42" fill="none" xmlns="http://www.w3.org/2000/svg">
<path d="M33 11V31C33 39 31 41 23 41H11C3 41 1 39 1 31V11C1 3 3 1 11 1H23C31 1 33 3 33 11Z" stroke="#292D32" stroke-width="1.5" stroke-linecap="round" stroke-linejoin="round"/>
<path d="M21 8H13" stroke="#292D32" stroke-width="1.5" stroke-linecap="round" stroke-linejoin="round"/>
<path d="M17 35.2C18.7121 35.2 20.1 33.8121 20.1 32.1C20.1 30.3879 18.7121 29 17 29C15.2879 29 13.9 30.3879 13.9 32.1C13.9 33.8121 15.2879 35.2 17 35.2Z" stroke="#292D32" stroke-width="1.5" stroke-linecap="round" stroke-linejoin="round"/>
</svg>
