<svg width="40" height="40" viewBox="0 0 40 40" fill="none" xmlns="http://www.w3.org/2000/svg">
<path d="M32.2333 24.15L30.5667 21.3833C30.2167 20.7667 29.9 19.6 29.9 18.9167V14.7C29.9 10.7833 27.6 7.4 24.2833 5.81667C23.4167 4.28333 21.8167 3.33333 19.9833 3.33333C18.1667 3.33333 16.5333 4.31667 15.6667 5.86667C12.4167 7.48333 10.1667 10.8333 10.1667 14.7V18.9167C10.1667 19.6 9.84999 20.7667 9.49999 21.3667L7.81665 24.15C7.14999 25.2667 6.99999 26.5 7.41665 27.6333C7.81665 28.75 8.76665 29.6167 9.99999 30.0333C13.2333 31.1333 16.6333 31.6667 20.0333 31.6667C23.4333 31.6667 26.8333 31.1333 30.0667 30.05C31.2333 29.6667 32.1333 28.7833 32.5667 27.6333C33 26.4833 32.8833 25.2167 32.2333 24.15Z" fill="#292D32"/>
<path d="M24.7167 33.35C24.0167 35.2833 22.1667 36.6667 20 36.6667C18.6834 36.6667 17.3834 36.1333 16.4667 35.1833C15.9334 34.6833 15.5334 34.0167 15.3 33.3333C15.5167 33.3667 15.7334 33.3833 15.9667 33.4167C16.35 33.4667 16.75 33.5167 17.15 33.55C18.1 33.6333 19.0667 33.6833 20.0334 33.6833C20.9834 33.6833 21.9334 33.6333 22.8667 33.55C23.2167 33.5167 23.5667 33.5 23.9 33.45C24.1667 33.4167 24.4334 33.3833 24.7167 33.35Z" fill="#292D32"/>
</svg>
