<svg width="30" height="10" viewBox="0 0 30 10" fill="none" xmlns="http://www.w3.org/2000/svg">
<path d="M5 7.5C6.38071 7.5 7.5 6.38071 7.5 5C7.5 3.61929 6.38071 2.5 5 2.5C3.61929 2.5 2.5 3.61929 2.5 5C2.5 6.38071 3.61929 7.5 5 7.5Z" fill="#292D32"/>
<path d="M15 7.5C16.3807 7.5 17.5 6.38071 17.5 5C17.5 3.61929 16.3807 2.5 15 2.5C13.6193 2.5 12.5 3.61929 12.5 5C12.5 6.38071 13.6193 7.5 15 7.5Z" fill="#292D32"/>
<path d="M25 7.5C26.3807 7.5 27.5 6.38071 27.5 5C27.5 3.61929 26.3807 2.5 25 2.5C23.6193 2.5 22.5 3.61929 22.5 5C22.5 6.38071 23.6193 7.5 25 7.5Z" fill="#292D32"/>
</svg>
