<svg width="41" height="40" viewBox="0 0 41 40" fill="none" xmlns="http://www.w3.org/2000/svg">
<g clip-path="url(#clip0_646_10)">
<path d="M33.841 13.9289L33.827 13.3302V2.0082L30.7692 5.13836C28.2667 2.00279 24.4595 0 20.1952 0C15.7572 0 11.8147 2.1682 9.32104 5.52459L14.3331 10.7089C14.8259 9.78033 15.5236 8.98361 16.365 8.37705C17.2401 7.67803 18.4799 7.10656 20.195 7.10656C20.4023 7.10656 20.5621 7.13115 20.6796 7.17803C22.8046 7.34967 24.6467 8.55016 25.731 10.2925L22.1816 13.9256L33.839 13.9279" fill="#1C3AA9"/>
<path d="M20.1156 0.000488281L19.5305 0.0163899H8.4698L11.5277 3.14639C8.4642 5.70492 6.50757 9.60328 6.50757 13.9684C6.50757 18.5093 8.6258 22.5464 11.9048 25.0975L16.9696 19.9672C16.063 19.4649 15.2831 18.7534 14.6917 17.889C14.009 16.9933 13.4505 15.7243 13.4505 13.9687C13.4505 13.7566 13.4745 13.593 13.5203 13.4726C13.688 11.2975 14.8608 9.41197 16.563 8.30213L20.1108 11.9336L20.113 0.00114402" fill="#4285F4"/>
<path d="M6.50806 13.968L6.52199 14.5667V25.8884L9.57985 22.7584C12.0825 25.8939 15.8897 27.8967 20.154 27.8967C24.5903 27.8967 28.5343 25.7285 31.0267 22.3721L26.0146 17.1879C25.5238 18.1159 24.8287 18.9142 23.9843 19.5195C23.1092 20.2185 21.8694 20.79 20.1543 20.79C19.9471 20.79 19.7873 20.7654 19.6697 20.7185C17.5447 20.5469 15.7026 19.3464 14.6184 17.6041L18.1662 13.9726C13.6722 13.989 8.59585 14.0013 6.5087 13.9703" fill="#ABABAB"/>
<path d="M8.81068 33.3062C8.47835 33.3062 8.1803 33.3708 7.91668 33.4997C7.65505 33.6242 7.42543 33.8095 7.24611 34.0408C7.06561 34.2753 6.9266 34.56 6.82922 34.8943C6.73313 35.2257 6.68732 35.5967 6.68732 36.009V37.1926C6.68732 37.6062 6.73457 37.9787 6.82922 38.3102C6.9266 38.6416 7.06417 38.9246 7.24179 39.1593C7.4194 39.3941 7.63417 39.5744 7.88657 39.7003C8.13898 39.8262 8.42246 39.8895 8.73764 39.8895C9.06148 39.8895 9.34512 39.8412 9.58871 39.7443C9.83535 39.6459 10.0415 39.5082 10.2077 39.3262C10.374 39.1415 10.5014 38.9185 10.5921 38.6574C10.6839 38.3964 10.7382 38.1 10.7555 37.7689H9.95852C9.9385 38.0241 9.90406 38.2443 9.85538 38.4246C9.80669 38.6049 9.73526 38.7516 9.64045 38.8672C9.54868 38.9816 9.4284 39.0667 9.27945 39.1225C9.13339 39.1753 8.95273 39.2016 8.73812 39.2016C8.5091 39.2016 8.31403 39.1503 8.15355 39.0475C7.99308 38.942 7.86271 38.7984 7.76245 38.6164C7.66508 38.4361 7.59333 38.222 7.54752 37.9771C7.5046 37.7336 7.48298 37.4712 7.48298 37.1895V35.9972C7.48298 35.6951 7.50861 35.4208 7.56034 35.1743C7.61479 34.9279 7.69647 34.7182 7.80538 34.5451C7.91428 34.372 8.05202 34.2385 8.21794 34.1448C8.38418 34.0464 8.58181 33.9995 8.81116 33.9995C9.00334 33.9995 9.16782 34.029 9.3054 34.0875C9.44313 34.1433 9.55748 34.2313 9.64925 34.3498C9.74102 34.4672 9.80941 34.6167 9.85986 34.7985C9.91031 34.9803 9.93994 35.1974 9.95868 35.4497H10.7539C10.7378 35.1054 10.6866 34.7972 10.5948 34.5316C10.503 34.2661 10.3754 34.0403 10.2104 33.8585C10.0455 33.6767 9.84801 33.5389 9.61306 33.4449C9.38083 33.351 9.11305 33.3039 8.80907 33.3039L8.81068 33.3062ZM28.2216 33.3062C27.8893 33.3062 27.5912 33.3708 27.3276 33.4997C27.066 33.6242 26.8364 33.8095 26.657 34.0408C26.4766 34.2753 26.3375 34.56 26.2402 34.8943C26.1441 35.2257 26.0983 35.5967 26.0983 36.009V37.1926C26.0983 37.6062 26.1455 37.9787 26.2402 38.3102C26.3375 38.6416 26.4751 38.9246 26.6527 39.1593C26.8303 39.3941 27.0451 39.5744 27.2975 39.7003C27.5499 39.8262 27.8334 39.8895 28.1486 39.8895C28.4724 39.8895 28.7561 39.8412 28.9997 39.7443C29.2463 39.6459 29.4524 39.5082 29.6187 39.3262C29.7849 39.1415 29.9124 38.9185 30.003 38.6574C30.0948 38.3964 30.1491 38.1 30.1664 37.7689H29.3712C29.3512 38.0241 29.3168 38.2443 29.2681 38.4246C29.2194 38.6049 29.148 38.7516 29.0531 38.8672C28.9614 38.9816 28.8411 39.0667 28.6922 39.1225C28.5461 39.1753 28.3654 39.2016 28.1508 39.2016C27.9218 39.2016 27.7267 39.1503 27.5663 39.0475C27.4058 38.942 27.2754 38.7984 27.1752 38.6164C27.0778 38.4361 27.006 38.222 26.9602 37.9771C26.9173 37.7336 26.8957 37.4712 26.8957 37.1895V35.9972C26.8957 35.6951 26.9213 35.4208 26.973 35.1743C27.0275 34.9279 27.1092 34.7182 27.2181 34.5451C27.327 34.372 27.4647 34.2385 27.6306 34.1448C27.7969 34.0464 27.9945 33.9995 28.2239 33.9995C28.416 33.9995 28.5805 34.029 28.7181 34.0875C28.8558 34.1433 28.9702 34.2313 29.062 34.3498C29.1537 34.4672 29.2221 34.6167 29.2726 34.7985C29.323 34.9803 29.3526 35.1974 29.3714 35.4497H30.1665C30.1505 35.1054 30.0993 34.7972 30.0075 34.5316C29.9157 34.2661 29.7881 34.0403 29.6231 33.8585C29.4582 33.6767 29.2607 33.5389 29.0258 33.4449C28.7935 33.351 28.5258 33.3039 28.2218 33.3039L28.2216 33.3062ZM13.3431 33.3943L11.3254 39.8H12.1334L12.6192 38.1282H14.7339L15.2281 39.8H16.0361L14.0159 33.3943H13.3431ZM16.889 33.3943V39.8H17.6737V37.2923H18.8813C19.1824 37.2923 19.4487 37.2497 19.6808 37.1648C19.913 37.0767 20.1078 36.9507 20.2654 36.7864C20.4258 36.6221 20.5461 36.4198 20.6264 36.1792C20.7096 35.9357 20.751 35.66 20.751 35.3521C20.751 35.0675 20.7093 34.8066 20.6264 34.569C20.5463 34.3285 20.4273 34.1218 20.2697 33.9487C20.1121 33.7728 19.9174 33.6364 19.6808 33.5395C19.4486 33.4412 19.1822 33.3943 18.8813 33.3943H16.889ZM21.3548 33.3943V34.0893H22.9967V39.8H23.7814V34.0893H25.4278V33.3943H21.3548ZM31.2277 33.3943V39.8H32.0125V36.839H34.5297V39.8H35.3205V33.3943H34.5297V36.1484H32.0109V33.3943H31.2277ZM38.3067 33.3943L36.2908 39.8H37.0988L37.5845 38.1282H39.6992L40.1935 39.8H41L38.9798 33.3943H38.3067ZM17.6753 34.0893H18.8829C19.0751 34.0893 19.2381 34.1246 19.373 34.1949C19.5048 34.2605 19.6196 34.357 19.7082 34.4766C19.7971 34.5939 19.8615 34.7303 19.9017 34.8857C19.9446 35.0382 19.9662 35.1967 19.9662 35.3612C19.9662 35.5415 19.9447 35.7103 19.9017 35.8628C19.8616 36.0123 19.7971 36.1415 19.7082 36.2562C19.6222 36.3648 19.5104 36.4497 19.373 36.5115C19.2384 36.5731 19.0751 36.6039 18.8829 36.6039H17.6753V34.0893ZM13.6781 34.5205L14.5334 37.433H12.8253L13.6781 34.5205ZM38.6417 34.5205L39.4969 37.433H37.7889L38.6417 34.5205ZM1.61758 34.9516C1.41979 34.9516 1.24922 35.003 1.10604 35.1057C0.965582 35.2084 0.849789 35.3477 0.753695 35.5238L0.740883 35.0398H0V39.8002H0.760742V36.3948C0.832332 36.1923 0.934031 36.0341 1.06584 35.9152C1.20037 35.7979 1.37094 35.7393 1.57738 35.7393L1.75355 35.7482C1.80985 35.7518 1.86586 35.7591 1.92123 35.7702L1.91691 35.0134C1.90538 35.0075 1.8868 35.0016 1.86086 34.9959C1.83569 34.9865 1.80982 34.9791 1.7835 34.9739C1.75467 34.968 1.72472 34.9636 1.69317 34.9608C1.66434 34.9549 1.63872 34.952 1.61582 34.952L1.61758 34.9516ZM4.17495 34.9516C3.95615 34.9513 3.7391 34.9916 3.53433 35.0705C3.32613 35.1497 3.14467 35.2803 2.98419 35.4639C2.8266 35.6443 2.69911 35.8775 2.59982 36.1679C2.50244 36.4552 2.45375 36.8072 2.45375 37.2282V37.7649C2.45375 38.1285 2.49539 38.4439 2.57836 38.7108C2.66132 38.9777 2.78015 39.1993 2.93502 39.3752C3.09262 39.5484 3.2832 39.6774 3.50678 39.7625C3.73036 39.8475 3.98084 39.89 4.25904 39.89C4.45955 39.89 4.63861 39.8695 4.79636 39.8284C4.95684 39.7874 5.09873 39.7344 5.22189 39.67C5.34521 39.6025 5.45092 39.5262 5.53996 39.4412C5.62901 39.3561 5.70493 39.268 5.76771 39.1789L5.37212 38.6861C5.30902 38.7653 5.24175 38.8385 5.17032 38.9061C5.09873 38.9707 5.01978 39.0279 4.93393 39.0777C4.8439 39.1254 4.74877 39.1623 4.65046 39.1875C4.54748 39.2154 4.43104 39.2272 4.30228 39.2272C3.94993 39.2272 3.67767 39.1113 3.48996 38.8797C3.3037 38.648 3.21065 38.2769 3.21065 37.7649V37.6551H5.80518V37.202C5.80518 36.8384 5.77507 36.5171 5.71486 36.2384C5.65464 35.9597 5.5587 35.7252 5.42689 35.5344C5.29865 35.3468 5.12346 35.1978 4.91968 35.1033C4.7134 35.0036 4.46404 34.9538 4.17175 34.9538L4.17495 34.9516ZM4.17495 35.6205C4.3412 35.6205 4.47877 35.6513 4.58752 35.713C4.69525 35.7734 4.7845 35.8632 4.84537 35.9725C4.91135 36.0839 4.9586 36.2174 4.98727 36.3728C5.01882 36.5252 5.03884 36.6941 5.04748 36.8787V36.9843H3.21498C3.22651 36.7174 3.2579 36.4957 3.31107 36.3198C3.36424 36.1439 3.43007 36.0046 3.51287 35.9018C3.59887 35.7962 3.69769 35.7215 3.80948 35.6818C3.92127 35.6421 4.04298 35.6202 4.17463 35.6202L4.17495 35.6205Z" fill="#A6A6A6"/>
</g>
<defs>
<clipPath id="clip0_646_10">
<rect width="41" height="40" fill="white"/>
</clipPath>
</defs>
</svg>
