<svg width="40" height="40" viewBox="0 0 40 40" fill="none" xmlns="http://www.w3.org/2000/svg">
<path d="M23.7 36.05C21.7333 36.05 18.95 34.6667 16.75 28.05L15.55 24.45L11.95 23.25C5.35001 21.05 3.96667 18.2667 3.96667 16.3C3.96667 14.35 5.35001 11.55 11.95 9.33333L26.1 4.61666C29.6333 3.43333 32.5833 3.78333 34.4 5.58333C36.2167 7.38333 36.5667 10.35 35.3833 13.8833L30.6667 28.0333C28.45 34.6667 25.6667 36.05 23.7 36.05ZM12.7333 11.7167C8.10001 13.2667 6.45001 15.1 6.45001 16.3C6.45001 17.5 8.10001 19.3333 12.7333 20.8667L16.9333 22.2667C17.3 22.3833 17.6 22.6833 17.7167 23.05L19.1167 27.25C20.65 31.8833 22.5 33.5333 23.7 33.5333C24.9 33.5333 26.7333 31.8833 28.2833 27.25L33 13.1C33.85 10.5333 33.7 8.43333 32.6167 7.35C31.5333 6.26666 29.4333 6.13333 26.8833 6.98333L12.7333 11.7167Z" fill="#292D32"/>
<path d="M16.85 24C16.5333 24 16.2166 23.8833 15.9666 23.6333C15.4833 23.15 15.4833 22.35 15.9666 21.8667L21.9333 15.8833C22.4166 15.4 23.2166 15.4 23.7 15.8833C24.1833 16.3667 24.1833 17.1667 23.7 17.65L17.7333 23.6333C17.5 23.8833 17.1666 24 16.85 24Z" fill="#292D32"/>
</svg>
