<svg width="40" height="40" viewBox="0 0 40 40" fill="none" xmlns="http://www.w3.org/2000/svg">
<rect width="40" height="40" fill="white"/>
<path d="M32.2 3.33333H7.80004C5.35004 3.33333 3.33337 5.34999 3.33337 7.79999V12.1833C3.33337 14.65 5.35004 16.6667 7.80004 16.6667H32.1834C34.65 16.6667 36.6667 14.65 36.6667 12.2V7.79999C36.6667 5.34999 34.65 3.33333 32.2 3.33333ZM11.25 11.6667C11.25 12.35 10.6834 12.9167 10 12.9167C9.31671 12.9167 8.75004 12.35 8.75004 11.6667V8.33333C8.75004 7.64999 9.31671 7.08333 10 7.08333C10.6834 7.08333 11.25 7.64999 11.25 8.33333V11.6667ZM17.9167 11.6667C17.9167 12.35 17.35 12.9167 16.6667 12.9167C15.9834 12.9167 15.4167 12.35 15.4167 11.6667V8.33333C15.4167 7.64999 15.9834 7.08333 16.6667 7.08333C17.35 7.08333 17.9167 7.64999 17.9167 8.33333V11.6667ZM30 11.25H23.3334C22.65 11.25 22.0834 10.6833 22.0834 9.99999C22.0834 9.31666 22.65 8.74999 23.3334 8.74999H30C30.6834 8.74999 31.25 9.31666 31.25 9.99999C31.25 10.6833 30.6834 11.25 30 11.25Z" fill="#292D32"/>
<path d="M32.2 23.3333H7.80004C5.35004 23.3333 3.33337 25.35 3.33337 27.8V32.1833C3.33337 34.65 5.35004 36.6667 7.80004 36.6667H32.1834C34.65 36.6667 36.65 34.65 36.65 32.2V27.8167C36.6667 25.35 34.65 23.3333 32.2 23.3333ZM11.25 31.6667C11.25 32.35 10.6834 32.9167 10 32.9167C9.31671 32.9167 8.75004 32.35 8.75004 31.6667V28.3333C8.75004 27.65 9.31671 27.0833 10 27.0833C10.6834 27.0833 11.25 27.65 11.25 28.3333V31.6667ZM17.9167 31.6667C17.9167 32.35 17.35 32.9167 16.6667 32.9167C15.9834 32.9167 15.4167 32.35 15.4167 31.6667V28.3333C15.4167 27.65 15.9834 27.0833 16.6667 27.0833C17.35 27.0833 17.9167 27.65 17.9167 28.3333V31.6667ZM30 31.25H23.3334C22.65 31.25 22.0834 30.6833 22.0834 30C22.0834 29.3167 22.65 28.75 23.3334 28.75H30C30.6834 28.75 31.25 29.3167 31.25 30C31.25 30.6833 30.6834 31.25 30 31.25Z" fill="#292D32"/>
</svg>
