<svg width="40" height="40" viewBox="0 0 40 40" fill="none" xmlns="http://www.w3.org/2000/svg">
<path d="M36.6667 20C36.6667 10.8167 29.1834 3.33333 20 3.33333C10.8167 3.33333 3.33337 10.8167 3.33337 20C3.33337 24.8333 5.41671 29.1833 8.71671 32.2333C8.71671 32.25 8.71671 32.25 8.70004 32.2667C8.86671 32.4333 9.06671 32.5667 9.23337 32.7167C9.33337 32.8 9.41671 32.8833 9.51671 32.95C9.81671 33.2 10.15 33.4333 10.4667 33.6667C10.5834 33.75 10.6834 33.8167 10.8 33.9C11.1167 34.1167 11.45 34.3167 11.8 34.5C11.9167 34.5667 12.05 34.65 12.1667 34.7167C12.5 34.9 12.85 35.0667 13.2167 35.2167C13.35 35.2833 13.4834 35.35 13.6167 35.4C13.9834 35.55 14.35 35.6833 14.7167 35.8C14.85 35.85 14.9834 35.9 15.1167 35.9333C15.5167 36.05 15.9167 36.15 16.3167 36.25C16.4334 36.2833 16.55 36.3167 16.6834 36.3333C17.15 36.4333 17.6167 36.5 18.1 36.55C18.1667 36.55 18.2334 36.5667 18.3 36.5833C18.8667 36.6333 19.4334 36.6667 20 36.6667C20.5667 36.6667 21.1334 36.6333 21.6834 36.5833C21.75 36.5833 21.8167 36.5667 21.8834 36.55C22.3667 36.5 22.8334 36.4333 23.3 36.3333C23.4167 36.3167 23.5334 36.2667 23.6667 36.25C24.0667 36.15 24.4834 36.0667 24.8667 35.9333C25 35.8833 25.1334 35.8333 25.2667 35.8C25.6334 35.6667 26.0167 35.55 26.3667 35.4C26.5 35.35 26.6334 35.2833 26.7667 35.2167C27.1167 35.0667 27.4667 34.9 27.8167 34.7167C27.95 34.65 28.0667 34.5667 28.1834 34.5C28.5167 34.3 28.85 34.1167 29.1834 33.9C29.3 33.8333 29.4 33.75 29.5167 33.6667C29.85 33.4333 30.1667 33.2 30.4667 32.95C30.5667 32.8667 30.65 32.7833 30.75 32.7167C30.9334 32.5667 31.1167 32.4167 31.2834 32.2667C31.2834 32.25 31.2834 32.25 31.2667 32.2333C34.5834 29.1833 36.6667 24.8333 36.6667 20ZM28.2334 28.2833C23.7167 25.25 16.3167 25.25 11.7667 28.2833C11.0334 28.7667 10.4334 29.3333 9.93337 29.95C7.40004 27.3833 5.83337 23.8667 5.83337 20C5.83337 12.1833 12.1834 5.83333 20 5.83333C27.8167 5.83333 34.1667 12.1833 34.1667 20C34.1667 23.8667 32.6 27.3833 30.0667 29.95C29.5834 29.3333 28.9667 28.7667 28.2334 28.2833Z" fill="#292D32"/>
<path d="M20 11.55C16.55 11.55 13.75 14.35 13.75 17.8C13.75 21.1833 16.4 23.9333 19.9167 24.0333C19.9667 24.0333 20.0333 24.0333 20.0667 24.0333C20.1 24.0333 20.15 24.0333 20.1833 24.0333C20.2 24.0333 20.2167 24.0333 20.2167 24.0333C23.5833 23.9167 26.2333 21.1833 26.25 17.8C26.25 14.35 23.45 11.55 20 11.55Z" fill="#292D32"/>
</svg>
